<?xml version="1.0" encoding="UTF-8"?>
<svg xmlns="http://www.w3.org/2000/svg" xmlns:xlink="http://www.w3.org/1999/xlink" width="20px" height="20px" viewBox="0 0 20 20" version="1.1">
<g id="surface1">
<path style=" stroke:none;fill-rule:nonzero;fill:rgb(45.882353%,4.313725%,4.313725%);fill-opacity:1;" d="M 13.363281 19.355469 L 1.742188 19.355469 C 0.78125 19.355469 0 18.574219 0 17.613281 L 0 2.386719 C 0 1.425781 0.78125 0.644531 1.742188 0.644531 L 13.363281 0.644531 C 14.324219 0.644531 15.105469 1.425781 15.105469 2.386719 L 15.105469 7.410156 C 15.105469 7.738281 14.839844 8.003906 14.511719 8.003906 C 14.183594 8.003906 13.917969 7.738281 13.917969 7.410156 L 13.917969 2.386719 C 13.917969 2.078125 13.667969 1.832031 13.363281 1.832031 L 1.742188 1.832031 C 1.433594 1.832031 1.1875 2.078125 1.1875 2.386719 L 1.1875 17.613281 C 1.1875 17.921875 1.433594 18.167969 1.742188 18.167969 L 13.363281 18.167969 C 13.667969 18.167969 13.917969 17.921875 13.917969 17.613281 L 13.917969 15.636719 C 13.917969 15.308594 14.183594 15.042969 14.511719 15.042969 C 14.839844 15.042969 15.105469 15.308594 15.105469 15.636719 L 15.105469 17.613281 C 15.105469 18.574219 14.324219 19.355469 13.363281 19.355469 Z M 13.363281 19.355469 "/>
<path style=" stroke:none;fill-rule:nonzero;fill:rgb(100%,100%,100%);fill-opacity:1;" d="M 4.199219 3.851562 L 10.90625 3.851562 L 10.90625 6.261719 L 4.199219 6.261719 Z M 4.199219 3.851562 "/>
<path style=" stroke:none;fill-rule:nonzero;fill:rgb(45.882353%,4.313725%,4.313725%);fill-opacity:1;" d="M 10.90625 6.855469 L 4.199219 6.855469 C 3.871094 6.855469 3.605469 6.589844 3.605469 6.261719 L 3.605469 3.851562 C 3.605469 3.523438 3.871094 3.257812 4.199219 3.257812 L 10.90625 3.257812 C 11.230469 3.257812 11.496094 3.523438 11.496094 3.851562 L 11.496094 6.261719 C 11.496094 6.589844 11.230469 6.855469 10.90625 6.855469 Z M 4.792969 5.667969 L 10.3125 5.667969 L 10.3125 4.441406 L 4.792969 4.441406 Z M 4.792969 5.667969 "/>
<path style=" stroke:none;fill-rule:nonzero;fill:rgb(45.882353%,4.313725%,4.313725%);fill-opacity:1;" d="M 19.40625 6.863281 C 19.253906 6.863281 19.101562 6.804688 18.988281 6.691406 L 17.453125 5.15625 L 16.25 6.359375 C 16.015625 6.589844 15.640625 6.589844 15.410156 6.359375 C 15.175781 6.128906 15.175781 5.75 15.410156 5.519531 L 17.03125 3.894531 C 17.265625 3.664062 17.640625 3.664062 17.871094 3.894531 L 19.828125 5.851562 C 20.058594 6.082031 20.058594 6.457031 19.828125 6.691406 C 19.710938 6.804688 19.558594 6.863281 19.40625 6.863281 Z M 19.40625 6.863281 "/>
<path style=" stroke:none;fill-rule:nonzero;fill:rgb(100%,100%,100%);fill-opacity:1;" d="M 15.828125 5.9375 L 8.351562 13.417969 L 8.039062 15.683594 L 10.304688 15.371094 L 17.78125 7.894531 Z M 15.828125 5.9375 "/>
<path style=" stroke:none;fill-rule:nonzero;fill:rgb(45.882353%,4.313725%,4.313725%);fill-opacity:1;" d="M 8.039062 16.277344 C 7.882812 16.277344 7.730469 16.214844 7.617188 16.105469 C 7.488281 15.972656 7.425781 15.789062 7.449219 15.601562 L 7.761719 13.335938 C 7.78125 13.207031 7.839844 13.089844 7.929688 13 L 15.410156 5.519531 C 15.519531 5.410156 15.671875 5.347656 15.828125 5.347656 C 15.984375 5.347656 16.136719 5.410156 16.25 5.519531 L 18.203125 7.472656 C 18.433594 7.707031 18.433594 8.082031 18.203125 8.3125 L 10.722656 15.792969 C 10.632812 15.882812 10.515625 15.941406 10.386719 15.960938 L 8.117188 16.273438 C 8.09375 16.277344 8.066406 16.277344 8.039062 16.277344 Z M 8.910156 13.695312 L 8.734375 14.988281 L 10.027344 14.8125 L 16.945312 7.894531 L 15.828125 6.777344 Z M 8.910156 13.695312 "/>
<path style=" stroke:none;fill-rule:nonzero;fill:rgb(45.882353%,4.313725%,4.313725%);fill-opacity:1;" d="M 8.039062 16.277344 L 4.199219 16.277344 C 3.871094 16.277344 3.605469 16.011719 3.605469 15.683594 C 3.605469 15.355469 3.871094 15.089844 4.199219 15.089844 L 8.039062 15.089844 C 8.367188 15.089844 8.632812 15.355469 8.632812 15.683594 C 8.632812 16.011719 8.367188 16.277344 8.039062 16.277344 Z M 8.039062 16.277344 "/>
</g>
</svg>
