<?xml version="1.0" encoding="UTF-8"?>
<svg xmlns="http://www.w3.org/2000/svg" xmlns:xlink="http://www.w3.org/1999/xlink" width="20px" height="20px" viewBox="0 0 20 20" version="1.1">
<g id="surface1">
<path style=" stroke:none;fill-rule:nonzero;fill:rgb(100%,100%,100%);fill-opacity:1;" d="M 10.328125 15.347656 L 7.484375 18.191406 C 6.726562 18.945312 5.71875 19.363281 4.648438 19.363281 C 3.578125 19.363281 2.574219 18.945312 1.816406 18.191406 C 0.253906 16.628906 0.253906 14.085938 1.816406 12.523438 L 7.171875 7.171875 C 7.925781 6.414062 8.933594 5.996094 10.003906 5.996094 C 11.074219 5.996094 12.078125 6.414062 12.835938 7.171875 C 13.277344 7.613281 13.609375 8.152344 13.804688 8.738281 L 11.273438 11.273438 C 10.933594 11.613281 10.476562 11.800781 9.996094 11.800781 C 9.515625 11.800781 9.0625 11.613281 8.71875 11.273438 C 8.546875 11.101562 8.414062 10.898438 8.324219 10.675781 C 8.257812 10.511719 8.074219 10.433594 7.910156 10.5 C 7.746094 10.566406 7.667969 10.753906 7.734375 10.914062 C 7.855469 11.21875 8.035156 11.492188 8.269531 11.722656 C 8.730469 12.183594 9.34375 12.441406 9.996094 12.441406 C 10.648438 12.441406 11.261719 12.183594 11.722656 11.722656 L 17.078125 6.371094 C 17.539062 5.910156 17.792969 5.296875 17.792969 4.644531 C 17.792969 3.992188 17.539062 3.378906 17.078125 2.914062 C 16.617188 2.453125 16.003906 2.199219 15.351562 2.199219 C 14.695312 2.199219 14.082031 2.453125 13.621094 2.914062 L 11.933594 4.605469 C 11.808594 4.730469 11.808594 4.933594 11.933594 5.058594 C 12.054688 5.183594 12.257812 5.183594 12.382812 5.058594 L 14.074219 3.367188 C 14.414062 3.027344 14.867188 2.839844 15.351562 2.839844 C 15.832031 2.839844 16.285156 3.027344 16.625 3.367188 C 16.964844 3.707031 17.15625 4.160156 17.15625 4.644531 C 17.15625 5.125 16.964844 5.578125 16.625 5.917969 L 14.300781 8.242188 C 14.070312 7.675781 13.726562 7.15625 13.289062 6.71875 C 11.476562 4.90625 8.53125 4.90625 6.71875 6.71875 L 1.367188 12.070312 C -0.445312 13.882812 -0.445312 16.832031 1.367188 18.640625 C 2.269531 19.546875 3.460938 20 4.648438 20 C 5.839844 20 7.03125 19.546875 7.933594 18.640625 L 10.777344 15.796875 C 10.902344 15.671875 10.902344 15.472656 10.777344 15.347656 C 10.652344 15.222656 10.453125 15.222656 10.328125 15.347656 Z M 10.328125 15.347656 "/>
<path style=" stroke:none;fill-rule:nonzero;fill:rgb(100%,100%,100%);fill-opacity:1;" d="M 18.632812 1.359375 C 16.824219 -0.453125 13.875 -0.453125 12.066406 1.359375 L 9.21875 4.207031 C 9.09375 4.332031 9.09375 4.53125 9.21875 4.65625 C 9.34375 4.78125 9.542969 4.78125 9.667969 4.65625 L 12.515625 1.808594 C 14.078125 0.246094 16.621094 0.246094 18.183594 1.808594 C 19.746094 3.371094 19.746094 5.914062 18.183594 7.476562 L 12.828125 12.828125 C 12.074219 13.585938 11.066406 14.003906 9.996094 14.003906 C 8.925781 14.003906 7.921875 13.585938 7.164062 12.828125 C 6.722656 12.386719 6.390625 11.847656 6.195312 11.261719 L 8.726562 8.726562 C 9.066406 8.386719 9.519531 8.199219 10.003906 8.199219 C 10.484375 8.199219 10.9375 8.386719 11.28125 8.726562 C 11.453125 8.898438 11.585938 9.101562 11.675781 9.324219 C 11.742188 9.488281 11.929688 9.566406 12.089844 9.5 C 12.253906 9.433594 12.332031 9.246094 12.265625 9.085938 C 12.144531 8.78125 11.964844 8.507812 11.730469 8.277344 C 11.269531 7.816406 10.65625 7.558594 10.003906 7.558594 C 9.351562 7.558594 8.738281 7.816406 8.277344 8.277344 L 5.667969 10.886719 C 5.621094 10.914062 5.582031 10.953125 5.554688 10.996094 L 2.921875 13.628906 C 2.460938 14.089844 2.207031 14.703125 2.207031 15.355469 C 2.207031 16.007812 2.460938 16.621094 2.921875 17.085938 C 3.382812 17.546875 3.996094 17.800781 4.648438 17.800781 C 5.304688 17.800781 5.917969 17.546875 6.378906 17.085938 L 8.066406 15.398438 C 8.191406 15.273438 8.191406 15.070312 8.066406 14.945312 C 7.941406 14.820312 7.738281 14.820312 7.613281 14.945312 L 5.925781 16.632812 C 5.585938 16.972656 5.132812 17.160156 4.648438 17.160156 C 4.167969 17.160156 3.714844 16.972656 3.375 16.632812 C 3.03125 16.292969 2.84375 15.839844 2.84375 15.355469 C 2.84375 14.875 3.03125 14.421875 3.375 14.082031 L 5.699219 11.757812 C 5.929688 12.324219 6.273438 12.84375 6.710938 13.28125 C 7.589844 14.160156 8.753906 14.640625 9.996094 14.640625 C 11.238281 14.640625 12.402344 14.160156 13.28125 13.28125 L 18.632812 7.929688 C 20.445312 6.117188 20.445312 3.167969 18.632812 1.359375 Z M 18.632812 1.359375 "/>
</g>
</svg>
