<?xml version="1.0" encoding="UTF-8"?>
<svg xmlns="http://www.w3.org/2000/svg" xmlns:xlink="http://www.w3.org/1999/xlink" width="20px" height="20px" viewBox="0 0 20 20" version="1.1">
<g id="surface1">
<path style=" stroke:none;fill-rule:nonzero;fill:rgb(97.647059%,96.470588%,97.647059%);fill-opacity:1;" d="M 2.472656 18.691406 L 17.527344 18.691406 C 18.730469 18.691406 19.707031 17.714844 19.707031 16.511719 L 19.707031 3.027344 C 19.707031 2.078125 18.9375 1.308594 17.988281 1.308594 L 6.371094 1.308594 C 5.421875 1.308594 4.652344 2.078125 4.652344 3.027344 L 4.652344 4.972656 "/>
<path style=" stroke:none;fill-rule:nonzero;fill:rgb(45.882353%,4.313725%,4.313725%);fill-opacity:1;" d="M 2.472656 18.691406 C 1.269531 18.691406 0.292969 17.714844 0.292969 16.511719 L 0.292969 6.695312 C 0.292969 5.746094 1.0625 4.972656 2.011719 4.972656 L 4.652344 4.972656 L 4.652344 16.511719 C 4.652344 17.714844 3.675781 18.691406 2.472656 18.691406 Z M 2.472656 18.691406 "/>
<path style=" stroke:none;fill-rule:nonzero;fill:rgb(45.882353%,4.313725%,4.313725%);fill-opacity:1;" d="M 17.015625 15.304688 L 13.96875 15.304688 C 13.433594 15.304688 12.996094 14.871094 12.996094 14.332031 L 12.996094 10.601562 C 12.996094 10.0625 13.433594 9.628906 13.96875 9.628906 L 17.015625 9.628906 C 17.550781 9.628906 17.988281 10.0625 17.988281 10.601562 L 17.988281 14.332031 C 17.988281 14.871094 17.550781 15.304688 17.015625 15.304688 Z M 17.015625 15.304688 "/>
<path style=" stroke:none;fill-rule:nonzero;fill:rgb(45.882353%,4.313725%,4.313725%);fill-opacity:1;" d="M 19.707031 4.421875 C 19.867188 4.421875 20 4.289062 20 4.128906 L 20 3.027344 C 20 1.917969 19.097656 1.015625 17.988281 1.015625 L 6.371094 1.015625 C 5.261719 1.015625 4.359375 1.917969 4.359375 3.027344 L 4.359375 4.679688 L 3.183594 4.679688 C 3.023438 4.679688 2.890625 4.8125 2.890625 4.976562 C 2.890625 5.136719 3.023438 5.265625 3.183594 5.265625 L 4.359375 5.265625 L 4.359375 7.753906 L 1.929688 7.753906 C 1.765625 7.753906 1.636719 7.886719 1.636719 8.046875 C 1.636719 8.210938 1.765625 8.339844 1.929688 8.339844 L 4.359375 8.339844 L 4.359375 9.648438 L 1.929688 9.648438 C 1.765625 9.648438 1.636719 9.777344 1.636719 9.941406 C 1.636719 10.101562 1.765625 10.234375 1.929688 10.234375 L 4.359375 10.234375 L 4.359375 11.539062 L 1.929688 11.539062 C 1.765625 11.539062 1.636719 11.671875 1.636719 11.832031 C 1.636719 11.996094 1.765625 12.125 1.929688 12.125 L 4.359375 12.125 L 4.359375 13.433594 L 1.929688 13.433594 C 1.765625 13.433594 1.636719 13.5625 1.636719 13.726562 C 1.636719 13.886719 1.765625 14.019531 1.929688 14.019531 L 4.359375 14.019531 L 4.359375 15.324219 L 1.929688 15.324219 C 1.765625 15.324219 1.636719 15.457031 1.636719 15.617188 C 1.636719 15.78125 1.765625 15.910156 1.929688 15.910156 L 4.359375 15.910156 L 4.359375 16.511719 C 4.359375 17.554688 3.511719 18.398438 2.472656 18.398438 C 1.433594 18.398438 0.585938 17.554688 0.585938 16.511719 L 0.585938 6.695312 C 0.585938 5.90625 1.226562 5.269531 2.011719 5.269531 C 2.175781 5.269531 2.304688 5.136719 2.304688 4.976562 C 2.304688 4.8125 2.175781 4.683594 2.011719 4.683594 C 0.902344 4.683594 0 5.585938 0 6.695312 L 0 16.511719 C 0 17.875 1.109375 18.984375 2.472656 18.984375 L 17.527344 18.984375 C 18.890625 18.984375 20 17.875 20 16.511719 L 20 5.300781 C 20 5.140625 19.867188 5.007812 19.707031 5.007812 C 19.546875 5.007812 19.414062 5.140625 19.414062 5.300781 L 19.414062 16.511719 C 19.414062 17.554688 18.566406 18.398438 17.527344 18.398438 L 4.066406 18.398438 C 4.601562 17.945312 4.945312 17.269531 4.945312 16.511719 L 4.945312 3.027344 C 4.945312 2.242188 5.585938 1.601562 6.371094 1.601562 L 17.988281 1.601562 C 18.773438 1.601562 19.414062 2.242188 19.414062 3.027344 L 19.414062 4.128906 C 19.414062 4.289062 19.546875 4.421875 19.707031 4.421875 Z M 19.707031 4.421875 "/>
<path style=" stroke:none;fill-rule:nonzero;fill:rgb(45.882353%,4.313725%,4.313725%);fill-opacity:1;" d="M 17.988281 2.515625 L 6.371094 2.515625 C 6.210938 2.515625 6.078125 2.644531 6.078125 2.808594 C 6.078125 2.96875 6.210938 3.101562 6.371094 3.101562 L 17.988281 3.101562 C 18.148438 3.101562 18.28125 2.96875 18.28125 2.808594 C 18.28125 2.644531 18.148438 2.515625 17.988281 2.515625 Z M 17.988281 2.515625 "/>
<path style=" stroke:none;fill-rule:nonzero;fill:rgb(45.882353%,4.313725%,4.313725%);fill-opacity:1;" d="M 17.988281 7.441406 L 6.371094 7.441406 C 6.210938 7.441406 6.078125 7.574219 6.078125 7.734375 C 6.078125 7.898438 6.210938 8.027344 6.371094 8.027344 L 17.988281 8.027344 C 18.148438 8.027344 18.28125 7.898438 18.28125 7.734375 C 18.28125 7.574219 18.148438 7.441406 17.988281 7.441406 Z M 17.988281 7.441406 "/>
<path style=" stroke:none;fill-rule:nonzero;fill:rgb(45.882353%,4.313725%,4.313725%);fill-opacity:1;" d="M 18.28125 10.601562 C 18.28125 9.902344 17.710938 9.335938 17.015625 9.335938 L 13.96875 9.335938 C 13.273438 9.335938 12.703125 9.902344 12.703125 10.601562 L 12.703125 14.332031 C 12.703125 15.03125 13.273438 15.597656 13.96875 15.597656 L 17.015625 15.597656 C 17.710938 15.597656 18.28125 15.03125 18.28125 14.332031 Z M 17.695312 14.332031 C 17.695312 14.707031 17.390625 15.011719 17.015625 15.011719 L 13.96875 15.011719 C 13.59375 15.011719 13.289062 14.707031 13.289062 14.332031 L 13.289062 10.601562 C 13.289062 10.226562 13.59375 9.921875 13.96875 9.921875 L 17.015625 9.921875 C 17.390625 9.921875 17.695312 10.226562 17.695312 10.601562 Z M 17.695312 14.332031 "/>
<path style=" stroke:none;fill-rule:nonzero;fill:rgb(45.882353%,4.313725%,4.313725%);fill-opacity:1;" d="M 12.996094 16.90625 C 12.835938 16.90625 12.703125 17.035156 12.703125 17.199219 C 12.703125 17.359375 12.835938 17.492188 12.996094 17.492188 L 17.988281 17.492188 C 18.148438 17.492188 18.28125 17.359375 18.28125 17.199219 C 18.28125 17.035156 18.148438 16.90625 17.988281 16.90625 Z M 12.996094 16.90625 "/>
<path style=" stroke:none;fill-rule:nonzero;fill:rgb(45.882353%,4.313725%,4.313725%);fill-opacity:1;" d="M 11.359375 9.335938 L 6.371094 9.335938 C 6.210938 9.335938 6.078125 9.464844 6.078125 9.628906 C 6.078125 9.789062 6.210938 9.921875 6.371094 9.921875 L 11.359375 9.921875 C 11.523438 9.921875 11.652344 9.789062 11.652344 9.628906 C 11.652344 9.464844 11.523438 9.335938 11.359375 9.335938 Z M 11.359375 9.335938 "/>
<path style=" stroke:none;fill-rule:nonzero;fill:rgb(45.882353%,4.313725%,4.313725%);fill-opacity:1;" d="M 11.359375 11.226562 L 6.371094 11.226562 C 6.210938 11.226562 6.078125 11.359375 6.078125 11.519531 C 6.078125 11.683594 6.210938 11.8125 6.371094 11.8125 L 11.359375 11.8125 C 11.523438 11.8125 11.652344 11.683594 11.652344 11.519531 C 11.652344 11.359375 11.523438 11.226562 11.359375 11.226562 Z M 11.359375 11.226562 "/>
<path style=" stroke:none;fill-rule:nonzero;fill:rgb(45.882353%,4.313725%,4.313725%);fill-opacity:1;" d="M 11.359375 13.121094 L 6.371094 13.121094 C 6.210938 13.121094 6.078125 13.25 6.078125 13.414062 C 6.078125 13.574219 6.210938 13.707031 6.371094 13.707031 L 11.359375 13.707031 C 11.523438 13.707031 11.652344 13.574219 11.652344 13.414062 C 11.652344 13.25 11.523438 13.121094 11.359375 13.121094 Z M 11.359375 13.121094 "/>
<path style=" stroke:none;fill-rule:nonzero;fill:rgb(45.882353%,4.313725%,4.313725%);fill-opacity:1;" d="M 11.359375 15.011719 L 6.371094 15.011719 C 6.210938 15.011719 6.078125 15.144531 6.078125 15.304688 C 6.078125 15.46875 6.210938 15.597656 6.371094 15.597656 L 11.359375 15.597656 C 11.523438 15.597656 11.652344 15.46875 11.652344 15.304688 C 11.652344 15.144531 11.523438 15.011719 11.359375 15.011719 Z M 11.359375 15.011719 "/>
<path style=" stroke:none;fill-rule:nonzero;fill:rgb(45.882353%,4.313725%,4.313725%);fill-opacity:1;" d="M 11.359375 16.90625 L 6.371094 16.90625 C 6.210938 16.90625 6.078125 17.035156 6.078125 17.199219 C 6.078125 17.359375 6.210938 17.492188 6.371094 17.492188 L 11.359375 17.492188 C 11.523438 17.492188 11.652344 17.359375 11.652344 17.199219 C 11.652344 17.035156 11.523438 16.90625 11.359375 16.90625 Z M 11.359375 16.90625 "/>
<path style=" stroke:none;fill-rule:nonzero;fill:rgb(45.882353%,4.313725%,4.313725%);fill-opacity:1;" d="M 6.539062 3.585938 C 6.417969 3.625 6.332031 3.738281 6.332031 3.867188 L 6.332031 6.679688 C 6.332031 6.84375 6.464844 6.972656 6.625 6.972656 C 6.789062 6.972656 6.917969 6.84375 6.917969 6.679688 L 6.917969 4.804688 L 8.289062 6.789062 C 8.375 6.917969 8.523438 6.972656 8.660156 6.929688 C 8.804688 6.882812 8.894531 6.75 8.894531 6.582031 L 8.867188 3.859375 C 8.867188 3.699219 8.734375 3.570312 8.574219 3.570312 C 8.410156 3.570312 8.28125 3.703125 8.28125 3.863281 L 8.300781 5.777344 L 6.867188 3.699219 C 6.792969 3.59375 6.660156 3.550781 6.539062 3.585938 Z M 6.539062 3.585938 "/>
<path style=" stroke:none;fill-rule:nonzero;fill:rgb(45.882353%,4.313725%,4.313725%);fill-opacity:1;" d="M 11.285156 4.179688 C 11.449219 4.179688 11.578125 4.050781 11.578125 3.886719 C 11.578125 3.726562 11.449219 3.59375 11.285156 3.59375 L 10.109375 3.59375 C 9.945312 3.59375 9.816406 3.726562 9.816406 3.886719 L 9.816406 6.679688 C 9.816406 6.84375 9.945312 6.972656 10.109375 6.972656 L 11.285156 6.972656 C 11.449219 6.972656 11.578125 6.84375 11.578125 6.679688 C 11.578125 6.519531 11.449219 6.386719 11.285156 6.386719 L 10.402344 6.386719 L 10.402344 5.578125 L 11.199219 5.578125 C 11.359375 5.578125 11.492188 5.445312 11.492188 5.285156 C 11.492188 5.121094 11.359375 4.992188 11.199219 4.992188 L 10.402344 4.992188 L 10.402344 4.179688 Z M 11.285156 4.179688 "/>
<path style=" stroke:none;fill-rule:nonzero;fill:rgb(45.882353%,4.313725%,4.313725%);fill-opacity:1;" d="M 16.953125 6.386719 C 16.65625 6.386719 16.371094 6.269531 16.1875 6.066406 C 16.078125 5.945312 15.894531 5.9375 15.773438 6.046875 C 15.652344 6.15625 15.644531 6.339844 15.753906 6.460938 C 16.042969 6.78125 16.492188 6.972656 16.953125 6.972656 C 17.507812 6.972656 17.992188 6.609375 18.082031 6.121094 C 18.144531 5.753906 17.976562 5.269531 17.296875 5.019531 C 16.941406 4.886719 16.613281 4.746094 16.519531 4.703125 C 16.445312 4.648438 16.410156 4.558594 16.421875 4.460938 C 16.433594 4.398438 16.476562 4.25 16.6875 4.1875 C 17.117188 4.058594 17.511719 4.367188 17.519531 4.375 C 17.644531 4.480469 17.828125 4.464844 17.933594 4.339844 C 18.035156 4.214844 18.019531 4.03125 17.894531 3.925781 C 17.871094 3.90625 17.261719 3.402344 16.519531 3.625 C 16.152344 3.734375 15.894531 4.023438 15.84375 4.378906 C 15.796875 4.707031 15.9375 5.023438 16.214844 5.207031 C 16.230469 5.214844 16.242188 5.222656 16.257812 5.230469 C 16.273438 5.234375 16.660156 5.40625 17.097656 5.570312 C 17.386719 5.675781 17.535156 5.839844 17.503906 6.019531 C 17.472656 6.199219 17.257812 6.386719 16.953125 6.386719 Z M 16.953125 6.386719 "/>
<path style=" stroke:none;fill-rule:nonzero;fill:rgb(45.882353%,4.313725%,4.313725%);fill-opacity:1;" d="M 12.46875 6.738281 C 12.519531 6.878906 12.652344 6.972656 12.804688 6.972656 L 12.808594 6.972656 C 12.957031 6.972656 13.09375 6.875 13.140625 6.734375 C 13.144531 6.730469 13.144531 6.726562 13.144531 6.726562 L 13.722656 4.855469 L 14.296875 6.726562 C 14.300781 6.730469 14.300781 6.734375 14.300781 6.738281 C 14.351562 6.878906 14.488281 6.976562 14.640625 6.972656 C 14.792969 6.972656 14.925781 6.875 14.976562 6.730469 C 14.980469 6.71875 14.984375 6.707031 14.984375 6.695312 L 15.535156 3.921875 C 15.570312 3.765625 15.464844 3.609375 15.308594 3.578125 C 15.148438 3.546875 14.992188 3.652344 14.960938 3.808594 L 14.589844 5.683594 L 14.003906 3.773438 C 13.960938 3.636719 13.820312 3.550781 13.679688 3.570312 C 13.554688 3.589844 13.457031 3.683594 13.433594 3.804688 L 12.855469 5.683594 L 12.480469 3.804688 C 12.449219 3.644531 12.296875 3.542969 12.136719 3.574219 C 11.980469 3.605469 11.875 3.757812 11.90625 3.917969 L 12.457031 6.695312 C 12.460938 6.710938 12.464844 6.722656 12.46875 6.738281 Z M 12.46875 6.738281 "/>
</g>
</svg>
